<svg xmlns="http://www.w3.org/2000/svg" width="29" height="29" viewBox="0 0 29 29" fill="none">
  <g clip-path="url(#clip0_896_1791)">
    <path d="M21.478 5.59159L16.4897 0.60321V5.59159H21.478Z" fill="#0381FF"/>
    <path d="M13.8647 15.2166C13.8647 14.7636 14.232 14.3963 14.6851 14.3963H21.9585V7.23224H15.6694C15.2164 7.23224 14.8491 6.86496 14.8491 6.41193V0.122864H3.63818C1.97968 0.122864 0.630371 1.47217 0.630371 3.13068V25.1151C0.630371 26.7736 1.97968 28.1229 3.63818 28.1229H18.9507C20.6092 28.1229 21.9585 26.7736 21.9585 25.1151V16.0369H14.6851C14.232 16.0369 13.8647 15.6696 13.8647 15.2166ZM4.73193 9.47443H14.0288C14.4818 9.47443 14.8491 9.84171 14.8491 10.2947C14.8491 10.7478 14.4818 11.1151 14.0288 11.1151H4.73193C4.2789 11.1151 3.91162 10.7478 3.91162 10.2947C3.91162 9.84171 4.2789 9.47443 4.73193 9.47443ZM4.73193 12.7557H11.8413C12.2943 12.7557 12.6616 13.123 12.6616 13.576C12.6616 14.029 12.2943 14.3963 11.8413 14.3963H4.73193C4.2789 14.3963 3.91162 14.029 3.91162 13.576C3.91162 13.123 4.2789 12.7557 4.73193 12.7557ZM4.73193 16.0369H11.8413C12.2943 16.0369 12.6616 16.4042 12.6616 16.8572C12.6616 17.3103 12.2943 17.6776 11.8413 17.6776H4.73193C4.2789 17.6776 3.91162 17.3103 3.91162 16.8572C3.91162 16.4042 4.2789 16.0369 4.73193 16.0369ZM14.0288 20.9588H4.73193C4.2789 20.9588 3.91162 20.5915 3.91162 20.1385C3.91162 19.6855 4.2789 19.3182 4.73193 19.3182H14.0288C14.4818 19.3182 14.8491 19.6855 14.8491 20.1385C14.8491 20.5915 14.4818 20.9588 14.0288 20.9588Z" fill="#0381FF"/>
    <path d="M28.3901 14.6366L25.1088 11.3553C24.7885 11.035 24.2691 11.035 23.9487 11.3553C23.6284 11.6757 23.6284 12.195 23.9487 12.5154L25.8297 14.3963H21.9585V16.0369H25.8297L23.9487 17.9178C23.6284 18.2382 23.6284 18.7575 23.9487 19.0779C24.1089 19.2381 24.3189 19.3181 24.5288 19.3181C24.7388 19.3181 24.9487 19.2381 25.1088 19.0779L28.3901 15.7966C28.7105 15.4763 28.7105 14.9569 28.3901 14.6366Z" fill="#0381FF"/>
  </g>
  <defs>
    <clipPath id="clip0_896_1791">
      <rect width="28" height="28" fill="white" transform="translate(0.630371 0.122864)"/>
    </clipPath>
  </defs>
</svg>